<mxfile host="app.diagrams.net" modified="2023-09-29T11:52:49.542Z" agent="Mozilla/5.0 (Windows NT 10.0; Win64; x64) AppleWebKit/537.36 (KHTML, like Gecko) Chrome/117.0.0.0 Safari/537.36 Edg/117.0.2045.43" etag="2QPGL2JzqiPxkrzb9Do7" version="22.0.0" type="github">
  <diagram id="R2lEEEUBdFMjLlhIrx00" name="Page-1">
    <mxGraphModel dx="1066" dy="671" grid="1" gridSize="10" guides="1" tooltips="1" connect="1" arrows="1" fold="1" page="1" pageScale="1" pageWidth="850" pageHeight="1100" math="0" shadow="0" extFonts="Permanent Marker^https://fonts.googleapis.com/css?family=Permanent+Marker">
      <root>
        <mxCell id="0" />
        <mxCell id="1" parent="0" />
        <mxCell id="_9hCbtUkBtZkM0SEBbNd-7" value="Point" style="swimlane;fontStyle=0;childLayout=stackLayout;horizontal=1;startSize=30;horizontalStack=0;resizeParent=1;resizeParentMax=0;resizeLast=0;collapsible=1;marginBottom=0;whiteSpace=wrap;html=1;" vertex="1" parent="1">
          <mxGeometry x="90" y="48" width="140" height="90" as="geometry" />
        </mxCell>
        <mxCell id="_9hCbtUkBtZkM0SEBbNd-8" value="- x_cord: double&lt;br&gt;- y_cord: double&lt;br&gt;- z_cord: double" style="text;strokeColor=none;fillColor=none;align=left;verticalAlign=middle;spacingLeft=4;spacingRight=4;overflow=hidden;points=[[0,0.5],[1,0.5]];portConstraint=eastwest;rotatable=0;whiteSpace=wrap;html=1;" vertex="1" parent="_9hCbtUkBtZkM0SEBbNd-7">
          <mxGeometry y="30" width="140" height="60" as="geometry" />
        </mxCell>
        <mxCell id="_9hCbtUkBtZkM0SEBbNd-11" value="Hummock" style="swimlane;fontStyle=0;childLayout=stackLayout;horizontal=1;startSize=30;horizontalStack=0;resizeParent=1;resizeParentMax=0;resizeLast=0;collapsible=1;marginBottom=0;whiteSpace=wrap;html=1;" vertex="1" parent="1">
          <mxGeometry x="130" y="400" width="180" height="120" as="geometry" />
        </mxCell>
        <mxCell id="_9hCbtUkBtZkM0SEBbNd-12" value="- sigma_y: double&lt;br&gt;- sigma_x: double&lt;br&gt;- rotarion_angle: double" style="text;strokeColor=none;fillColor=none;align=left;verticalAlign=middle;spacingLeft=4;spacingRight=4;overflow=hidden;points=[[0,0.5],[1,0.5]];portConstraint=eastwest;rotatable=0;whiteSpace=wrap;html=1;" vertex="1" parent="_9hCbtUkBtZkM0SEBbNd-11">
          <mxGeometry y="30" width="180" height="60" as="geometry" />
        </mxCell>
        <mxCell id="_9hCbtUkBtZkM0SEBbNd-13" value="+ get_hummock_hight(): double" style="text;strokeColor=none;fillColor=none;align=left;verticalAlign=middle;spacingLeft=4;spacingRight=4;overflow=hidden;points=[[0,0.5],[1,0.5]];portConstraint=eastwest;rotatable=0;whiteSpace=wrap;html=1;" vertex="1" parent="_9hCbtUkBtZkM0SEBbNd-11">
          <mxGeometry y="90" width="180" height="30" as="geometry" />
        </mxCell>
        <mxCell id="_9hCbtUkBtZkM0SEBbNd-15" value="Stone" style="swimlane;fontStyle=0;childLayout=stackLayout;horizontal=1;startSize=30;horizontalStack=0;resizeParent=1;resizeParentMax=0;resizeLast=0;collapsible=1;marginBottom=0;whiteSpace=wrap;html=1;" vertex="1" parent="1">
          <mxGeometry x="490" y="30" width="170" height="90" as="geometry" />
        </mxCell>
        <mxCell id="_9hCbtUkBtZkM0SEBbNd-16" value="- radius: double" style="text;strokeColor=none;fillColor=none;align=left;verticalAlign=middle;spacingLeft=4;spacingRight=4;overflow=hidden;points=[[0,0.5],[1,0.5]];portConstraint=eastwest;rotatable=0;whiteSpace=wrap;html=1;" vertex="1" parent="_9hCbtUkBtZkM0SEBbNd-15">
          <mxGeometry y="30" width="170" height="30" as="geometry" />
        </mxCell>
        <mxCell id="_9hCbtUkBtZkM0SEBbNd-17" value="+ get_stone_hight(): double" style="text;strokeColor=none;fillColor=none;align=left;verticalAlign=middle;spacingLeft=4;spacingRight=4;overflow=hidden;points=[[0,0.5],[1,0.5]];portConstraint=eastwest;rotatable=0;whiteSpace=wrap;html=1;" vertex="1" parent="_9hCbtUkBtZkM0SEBbNd-15">
          <mxGeometry y="60" width="170" height="30" as="geometry" />
        </mxCell>
        <mxCell id="_9hCbtUkBtZkM0SEBbNd-19" style="edgeStyle=orthogonalEdgeStyle;rounded=0;orthogonalLoop=1;jettySize=auto;html=1;exitX=1;exitY=0.5;exitDx=0;exitDy=0;" edge="1" parent="_9hCbtUkBtZkM0SEBbNd-15" source="_9hCbtUkBtZkM0SEBbNd-16" target="_9hCbtUkBtZkM0SEBbNd-16">
          <mxGeometry relative="1" as="geometry" />
        </mxCell>
        <mxCell id="_9hCbtUkBtZkM0SEBbNd-33" style="edgeStyle=orthogonalEdgeStyle;rounded=0;orthogonalLoop=1;jettySize=auto;html=1;exitX=0.5;exitY=0;exitDx=0;exitDy=0;entryX=1;entryY=0.5;entryDx=0;entryDy=0;endArrow=diamondThin;endFill=0;endSize=20;" edge="1" parent="1" source="_9hCbtUkBtZkM0SEBbNd-20" target="_9hCbtUkBtZkM0SEBbNd-25">
          <mxGeometry relative="1" as="geometry" />
        </mxCell>
        <mxCell id="_9hCbtUkBtZkM0SEBbNd-20" value="Log" style="swimlane;fontStyle=0;childLayout=stackLayout;horizontal=1;startSize=30;horizontalStack=0;resizeParent=1;resizeParentMax=0;resizeLast=0;collapsible=1;marginBottom=0;whiteSpace=wrap;html=1;" vertex="1" parent="1">
          <mxGeometry x="690" y="300" width="150" height="150" as="geometry" />
        </mxCell>
        <mxCell id="_9hCbtUkBtZkM0SEBbNd-21" value="- x1_cord: double&lt;br&gt;- y1_cord: double&lt;br&gt;- x2_cord: double&lt;br&gt;- y2_cord: double&lt;br&gt;- log_radius: double" style="text;strokeColor=none;fillColor=none;align=left;verticalAlign=middle;spacingLeft=4;spacingRight=4;overflow=hidden;points=[[0,0.5],[1,0.5]];portConstraint=eastwest;rotatable=0;whiteSpace=wrap;html=1;" vertex="1" parent="_9hCbtUkBtZkM0SEBbNd-20">
          <mxGeometry y="30" width="150" height="90" as="geometry" />
        </mxCell>
        <mxCell id="_9hCbtUkBtZkM0SEBbNd-22" value="+ get_log_hight(): double" style="text;strokeColor=none;fillColor=none;align=left;verticalAlign=middle;spacingLeft=4;spacingRight=4;overflow=hidden;points=[[0,0.5],[1,0.5]];portConstraint=eastwest;rotatable=0;whiteSpace=wrap;html=1;" vertex="1" parent="_9hCbtUkBtZkM0SEBbNd-20">
          <mxGeometry y="120" width="150" height="30" as="geometry" />
        </mxCell>
        <mxCell id="_9hCbtUkBtZkM0SEBbNd-24" value="Surface" style="swimlane;fontStyle=0;childLayout=stackLayout;horizontal=1;startSize=30;horizontalStack=0;resizeParent=1;resizeParentMax=0;resizeLast=0;collapsible=1;marginBottom=0;whiteSpace=wrap;html=1;" vertex="1" parent="1">
          <mxGeometry x="400" y="200" width="190" height="170" as="geometry" />
        </mxCell>
        <mxCell id="_9hCbtUkBtZkM0SEBbNd-25" value="&lt;font style=&quot;font-size: 12px;&quot;&gt;&lt;font style=&quot;font-size: 12px;&quot;&gt;- lenght: double&lt;br&gt;- width: double&lt;br&gt;- unevenness_degree: double&lt;br&gt;- ptrs_points&lt;/font&gt;&lt;font style=&quot;font-size: 12px;&quot;&gt;&lt;font style=&quot;font-size: 12px;&quot;&gt;&lt;span style=&quot;background-color: rgb(255, 255, 255);&quot;&gt;: * Hummock[0...*]&lt;br&gt;&lt;/span&gt;&lt;/font&gt;-&amp;nbsp;&lt;/font&gt;ptrs_stones: * Stone[0...*]&lt;br&gt;&lt;font style=&quot;font-size: 12px;&quot;&gt;- ptrs_logs: * Log[0...*]&lt;br&gt;&lt;/font&gt;&lt;/font&gt;&lt;font style=&quot;font-size: 12px;&quot; face=&quot;Consolas, Courier New, monospace&quot;&gt;&lt;br&gt;&lt;/font&gt;" style="text;strokeColor=none;fillColor=none;align=left;verticalAlign=middle;spacingLeft=4;spacingRight=4;overflow=hidden;points=[[0,0.5],[1,0.5]];portConstraint=eastwest;rotatable=0;whiteSpace=wrap;html=1;" vertex="1" parent="_9hCbtUkBtZkM0SEBbNd-24">
          <mxGeometry y="30" width="190" height="100" as="geometry" />
        </mxCell>
        <mxCell id="_9hCbtUkBtZkM0SEBbNd-26" value="&lt;font style=&quot;font-size: 12px;&quot;&gt;+ get_surface_hight(): double&lt;br&gt;+ Print_in_file(): void&lt;/font&gt;" style="text;strokeColor=none;fillColor=none;align=left;verticalAlign=middle;spacingLeft=4;spacingRight=4;overflow=hidden;points=[[0,0.5],[1,0.5]];portConstraint=eastwest;rotatable=0;whiteSpace=wrap;html=1;" vertex="1" parent="_9hCbtUkBtZkM0SEBbNd-24">
          <mxGeometry y="130" width="190" height="40" as="geometry" />
        </mxCell>
        <mxCell id="_9hCbtUkBtZkM0SEBbNd-29" style="edgeStyle=orthogonalEdgeStyle;rounded=0;orthogonalLoop=1;jettySize=auto;html=1;exitX=0.504;exitY=1.075;exitDx=0;exitDy=0;entryX=0.5;entryY=0;entryDx=0;entryDy=0;endArrow=block;endFill=0;endSize=20;exitPerimeter=0;" edge="1" parent="1" source="_9hCbtUkBtZkM0SEBbNd-8" target="_9hCbtUkBtZkM0SEBbNd-11">
          <mxGeometry relative="1" as="geometry">
            <Array as="points">
              <mxPoint x="161" y="120" />
              <mxPoint x="160" y="330" />
              <mxPoint x="220" y="330" />
            </Array>
          </mxGeometry>
        </mxCell>
        <mxCell id="_9hCbtUkBtZkM0SEBbNd-30" value="" style="edgeStyle=orthogonalEdgeStyle;rounded=0;orthogonalLoop=1;jettySize=auto;html=1;exitX=1;exitY=0.5;exitDx=0;exitDy=0;entryX=0;entryY=0.5;entryDx=0;entryDy=0;endArrow=block;endFill=0;endSize=20;align=left;labelBorderColor=none;fontSize=12;" edge="1" parent="1" source="_9hCbtUkBtZkM0SEBbNd-8" target="_9hCbtUkBtZkM0SEBbNd-16">
          <mxGeometry x="-0.7551" y="-70" relative="1" as="geometry">
            <Array as="points">
              <mxPoint x="280" y="108" />
              <mxPoint x="280" y="75" />
            </Array>
            <mxPoint as="offset" />
          </mxGeometry>
        </mxCell>
        <mxCell id="_9hCbtUkBtZkM0SEBbNd-31" style="edgeStyle=orthogonalEdgeStyle;rounded=0;orthogonalLoop=1;jettySize=auto;html=1;exitX=1;exitY=0.5;exitDx=0;exitDy=0;entryX=0.5;entryY=0;entryDx=0;entryDy=0;endArrow=diamondThin;endFill=0;strokeWidth=1;endSize=20;" edge="1" parent="1" source="_9hCbtUkBtZkM0SEBbNd-16" target="_9hCbtUkBtZkM0SEBbNd-24">
          <mxGeometry relative="1" as="geometry" />
        </mxCell>
        <mxCell id="_9hCbtUkBtZkM0SEBbNd-32" style="edgeStyle=orthogonalEdgeStyle;rounded=0;orthogonalLoop=1;jettySize=auto;html=1;exitX=1;exitY=0.5;exitDx=0;exitDy=0;entryX=0;entryY=0.5;entryDx=0;entryDy=0;endArrow=diamondThin;endFill=0;endSize=20;" edge="1" parent="1" source="_9hCbtUkBtZkM0SEBbNd-12" target="_9hCbtUkBtZkM0SEBbNd-25">
          <mxGeometry relative="1" as="geometry" />
        </mxCell>
        <mxCell id="_9hCbtUkBtZkM0SEBbNd-41" value="1...1" style="text;html=1;align=center;verticalAlign=middle;resizable=0;points=[];autosize=1;strokeColor=none;fillColor=none;" vertex="1" parent="1">
          <mxGeometry x="355" y="280" width="50" height="30" as="geometry" />
        </mxCell>
        <mxCell id="_9hCbtUkBtZkM0SEBbNd-42" value="0...*" style="text;html=1;align=center;verticalAlign=middle;resizable=0;points=[];autosize=1;strokeColor=none;fillColor=none;" vertex="1" parent="1">
          <mxGeometry x="310" y="460" width="40" height="30" as="geometry" />
        </mxCell>
        <mxCell id="_9hCbtUkBtZkM0SEBbNd-43" value="1...1" style="text;html=1;align=center;verticalAlign=middle;resizable=0;points=[];autosize=1;strokeColor=none;fillColor=none;" vertex="1" parent="1">
          <mxGeometry x="585" y="288" width="50" height="30" as="geometry" />
        </mxCell>
        <mxCell id="_9hCbtUkBtZkM0SEBbNd-44" value="1...1" style="text;html=1;align=center;verticalAlign=middle;resizable=0;points=[];autosize=1;strokeColor=none;fillColor=none;" vertex="1" parent="1">
          <mxGeometry x="505" y="168" width="50" height="30" as="geometry" />
        </mxCell>
        <mxCell id="_9hCbtUkBtZkM0SEBbNd-45" value="0...*" style="text;html=1;align=center;verticalAlign=middle;resizable=0;points=[];autosize=1;strokeColor=none;fillColor=none;" vertex="1" parent="1">
          <mxGeometry x="720" y="250" width="40" height="30" as="geometry" />
        </mxCell>
        <mxCell id="_9hCbtUkBtZkM0SEBbNd-46" value="0...*" style="text;html=1;align=center;verticalAlign=middle;resizable=0;points=[];autosize=1;strokeColor=none;fillColor=none;" vertex="1" parent="1">
          <mxGeometry x="680" y="48" width="40" height="30" as="geometry" />
        </mxCell>
      </root>
    </mxGraphModel>
  </diagram>
</mxfile>
